#!OML:ASF H:\Terrain\Walking\May29\JustinRory\Justin.ASF
:FULLY-SPECIFIED
:DEGREES
1345
root 6.8927 17.4093 -16.2975 -2.48978 18.0174 -8.17785
lowerback 10.2974 -3.23173 -3.21307
upperback 1.11241 -4.3428 6.68574
thorax -3.83181 -2.07613 9.5126
lowerneck -15.9174 -7.52331 -11.8865
upperneck -2.64484 -8.44827 16.6889
head 3.09532 -3.54848 6.45123
rclavicle 5.86415e-015 -3.02153e-014
rhumerus -33.9304 -17.0173 -66.847
rradius 115.228
rwrist -13.661
rhand -34.5743 61.724
rfingers 7.12502
rthumb -7.73392 31.8855
lclavicle 5.86415e-015 -3.02153e-014
lhumerus -9.48559 1.46331 79.7055
lradius 87.5986
lwrist 6.32051
lhand -17.9173 27.9183
lfingers 7.12502
lthumb 8.35012 57.7333
rfemur -3.20232 -12.3724 28.679
rtibia 18.9578
rfoot -14.7457 -19.9519
rtoes 8.93862
lfemur -15.4079 -9.36974 -5.31839
ltibia 31.0795
lfoot -16.7572 -6.20528
ltoes -14.0331
1346
root 6.88579 17.4051 -16.3115 -2.56928 17.6239 -8.30268
lowerback 10.4001 -3.18121 -3.21952
upperback 1.18969 -4.2788 6.67914
thorax -3.81912 -2.04675 9.50643
lowerneck -16.2807 -7.52886 -11.265
upperneck -2.1031 -8.56191 16.018
head 3.25699 -3.60471 6.10883
rclavicle -5.75979e-014 2.46493e-014
rhumerus -34.0144 -16.5337 -67.0861
rradius 115.18
rwrist -13.6116
rhand -34.5432 62.2002
rfingers 7.12502
rthumb -7.70387 32.3606
lclavicle -5.75979e-014 2.46493e-014
lhumerus -9.31375 1.44012 79.1913
lradius 87.5134
lwrist 6.55789
lhand -18.2293 28.1443
lfingers 7.12502
lthumb 8.04899 57.9711
rfemur -3.43676 -12.3709 28.8243
rtibia 19.4047
rfoot -14.7326 -19.699
rtoes 8.05431
lfemur -15.3773 -9.44157 -5.14525
ltibia 31.1977
lfoot -16.5863 -5.96354
ltoes -12.862
1347
root 6.89264 17.3985 -16.3208 -2.38074 17.1913 -7.85916
lowerback 10.2309 -3.06997 -3.55326
upperback 1.30379 -4.18027 6.51461
thorax -3.61099 -2.00625 9.48712
lowerneck -16.4948 -7.60264 -11.3738
upperneck -1.96876 -8.64232 16.12
head 3.35232 -3.62823 6.14525
rclavicle 3.97569e-014 -6.99722e-014
rhumerus -33.8237 -16.2212 -67.2886
rradius 115.075
rwrist -13.3724
rhand -34.1628 61.5679
rfingers 7.12502
rthumb -7.33673 31.7151
lclavicle 3.97569e-014 -6.99722e-014
lhumerus -8.87282 1.34652 78.9609
lradius 87.3131
lwrist 6.8281
lhand -18.593 28.5661
lfingers 7.12502
lthumb 7.69802 58.406
rfemur -3.65394 -12.6845 28.3109
rtibia 19.6652
rfoot -14.446 -19.1105
rtoes 6.30989
lfemur -15.3343 -9.52594 -5.63554
ltibia 31.397
lfoot -16.6352 -5.52262
ltoes -12.4035
1348
root 6.90543 17.3918 -16.3333 -2.32238 16.342 -7.8479
lowerback 10.0525 -2.89506 -3.37904
upperback 1.43361 -3.93541 6.40182
thorax -3.44117 -1.8965 9.21117
lowerneck -16.4876 -7.50852 -11.5412
upperneck -2.17476 -8.48117 16.4685
head 3.2988 -3.54004 6.30467
rclavicle 3.20043e-014 -6.59965e-014
rhumerus -33.17 -15.9727 -67.7035
rradius 114.741
rwrist -12.7843
rhand -33.5906 60.106
rfingers 7.12502
rthumb -6.78434 30.2347
lclavicle 3.20043e-014 -6.59965e-014
lhumerus -8.69174 1.27852 78.5541
lradius 87.3005
lwrist 7.21552
lhand -18.5486 28.8517
lfingers 7.12502
lthumb 7.74085 58.69
rfemur -3.818 -12.5589 28.2652
rtibia 19.875
rfoot -14.2286 -18.4789
rtoes 5.25976
lfemur -15.1624 -9.34651 -5.65039
ltibia 31.5934
lfoot -16.8088 -4.95926
ltoes -12.2753
1349
root 6.90515 17.3853 -16.3536 -2.49622 15.2172 -8.4591
lowerback 10.1674 -2.68896 -2.75355
upperback 1.51197 -3.58901 6.47416
thorax -3.52041 -1.72787 8.89128
lowerneck -16.9392 -7.4294 -11.3653
upperneck -1.88512 -8.39299 16.3678
head 3.42897 -3.47506 6.24272
rclavicle 8.48811e-014 -1.43125e-014
rhumerus -32.3732 -15.3802 -67.9789
rradius 114.338
rwrist -12.2987
rhand -32.9091 58.4533
rfingers 7.12502
rthumb -6.12642 28.5619
lclavicle 8.48811e-014 -1.43125e-014
lhumerus -9.02412 1.41889 78.1309
lradius 87.5173
lwrist 7.4983
lhand -18.2273 28.818
lfingers 7.12502
lthumb 8.05097 58.6447
rfemur -3.95293 -11.6649 29.0125
rtibia 20.093
rfoot -14.1378 -18.4234
rtoes 4.96778
lfemur -14.9162 -8.84708 -4.91688
ltibia 31.6605
lfoot -16.7805 -4.56087
ltoes -12.1711
